<svg xmlns="http://www.w3.org/2000/svg" viewBox="0.0000 0.0000 140.2427 116.3769" role="img" aria-labelledby="verkupAppMarkTitle">
  <title id="verkupAppMarkTitle">Verkup app icon mark</title>
  <path fill="#ff7500" d="M 140.2427 89.3798 L 121.1108 89.3798 L 90.4986 0.0000 L 109.6305 0.0000 Z"/>
  <path fill="#ff7500" d="M 84.3738 70.1626 L 108.4039 0.0000 L 89.2721 0.0000 L 68.9315 59.3892 C 72.8082 61.8673 79.6830 66.7664 84.3738 70.1626"/>
  <path fill="#7a3800" d="M 54.8765 51.3612 L 72.4674 0.0000 L 53.3356 0.0000 L 38.3406 43.7825 C 43.9994 46.0670 49.4884 48.5779 54.8765 51.3612"/>
  <path fill="#351800" d="M 23.3844 38.3848 L 36.5309 0.0000 L 17.3991 0.0000 L 5.9474 33.4369 C 11.9965 34.9486 17.7902 36.5854 23.3844 38.3848"/>
  <path fill="#ff7500" d="M 67.1998 97.8358 L 59.4884 105.5469 L 101.1634 116.3769 L 90.3336 74.7020 L 82.6226 82.4131 C 59.8581 64.3320 37.1843 52.0240 0.0000 43.1558 C 34.7632 64.5486 51.2399 73.2787 67.1998 97.8358"/>
</svg>
